# xmcd
# 
# Track frame offsets:
#     150
#     19821
#     33020
#     48935
#     69112
#     87965
#     101110
#     113720
#     130208
#     147916
#     158574
#     176181
#     187120
#     211674
#     230080
#     248767
#     266780
#     282315
#     298889
#     314971
# 
# Disc length: 4409
# 
# Revision: 3
# Processed by: cddbd v1.5.2PL0 Copyright (c) Steve Scherf et al.
# Submitted via: fre:ac v1.0.31
# 
DISCID=2c113714
DTITLE=Various Artist - Die Ultimative Chart Show - Die erfolgreichsten Fetenhits  - CD2
DYEAR=2012
DGENRE=Pop
TTITLE0=Kiss - I was made for lovin' you
TTITLE1=Plastic Bertrand - Ca plane pour moi
TTITLE2=Bronski Beat - Hit that perfect beat
TTITLE3=Dead Or Alive - You spin me round (like a record)
TTITLE4=Cameo - Word up!
TTITLE5=Nena - Nur geträumt (New Version)
TTITLE6=Extrabreit - Flieger, grüß' mir die Sonne
TTITLE7=Udo Jürgens - Der Erste Sahne Mix
TTITLE8=DJ Ötzi and Nik P. - Ein Stern (... der deinen Namen trägt)
TTITLE9=Chubby Checker - Let's twist again
TTITLE10=Wang Chung - Dance hall days
TTITLE11=Aretha Franklin - Respect
TTITLE12=Chic - Le freak
TTITLE13=Diana Ross - Upside down
TTITLE14=Ce Ce Peniston - Finally
TTITLE15=Dr. Alban - Sing hallelujah!
TTITLE16=Cascada - Evacuate the dancefloor
TTITLE17=Snap! - The power
TTITLE18=Faithless - Insomnia
TTITLE19=Frauenarzt and Manny Marc - Das geht ab! (Wir feiern die ganze Nacht) (Atzen Musik Mix)
EXTD=
EXTT0=
EXTT1=
EXTT2=
EXTT3=
EXTT4=
EXTT5=
EXTT6=
EXTT7=
EXTT8=
EXTT9=
EXTT10=
EXTT11=
EXTT12=
EXTT13=
EXTT14=
EXTT15=
EXTT16=
EXTT17=
EXTT18=
EXTT19=
PLAYORDER=
